<?xml version="1.0" encoding="UTF-8"?>
<!-- Generator: Adobe Illustrator 24.3.0, SVG Export Plug-In . SVG Version: 6.00 Build 0)  -->
<svg xmlns="http://www.w3.org/2000/svg" xmlns:xlink="http://www.w3.org/1999/xlink" version="1.1" id="Calque_1" x="0px" y="0px" viewBox="0 0 401.28 401.28" style="enable-background:new 0 0 401.28 401.28;" xml:space="preserve">
<style type="text/css">
	.st0{fill:#FFFFFF;}
	.st1{fill:#73B95B;}
	.st2{fill:#5A2E22;}
	.st3{font-family:'Molgan-Regular';}
	.st4{font-size:50.473px;}
	.st5{font-size:61.1264px;}
	.st6{font-family:'Helvetica-Bold';}
	.st7{font-size:17.0816px;}
	.st8{fill:none;stroke:#FFFFFF;stroke-miterlimit:10;}
</style>
<g>
	<g>
		<path class="st0" d="M127.62,248.45c-10.93,11.5-29.47,11.63-29.47,11.63s-0.8-18.52,10.13-30.02    c10.93-11.5,29.47-11.63,29.47-11.63S138.55,236.95,127.62,248.45z"></path>
		<g>
			<path class="st0" d="M134.22,203.06c-4.7,0.43-9.43,0.82-14.15,0.51c-1.78-0.12-3.04,0.28-4.36,1.38     c-7.48,6.25-15.02,12.44-22.54,18.65c-0.78,0.64-1.57,1.26-2.38,1.91c-0.96-0.86-0.54-1.84-0.55-2.69     c-0.03-8.14-0.05-16.28,0.04-24.42c0.02-1.99-0.59-3.08-2.42-4.15c-28.07-16.37-42-40.92-40.26-73.33     c2.01-37.36,31.65-67.64,68.74-71.56c41.6-4.39,78.8,24.54,84.96,66.09c4.81,32.45-12.51,65.49-41.92,79.97     c-2.4,1.18-2.45,1.16-2.46-1.57c-0.01-4.75,0.07-9.5-0.04-14.25c-0.04-1.64,0.53-2.6,1.85-3.54c16.92-12,25.72-28.43,26.33-49.15     c0.81-27.59-19.56-53.45-46.65-59.43c-34.06-7.52-66.36,13.58-73.12,47.78c-6.41,32.45,16.2,65.1,48.87,70.38     c3.1,0.5,5.42,1.66,7.58,3.92c4.15,4.33,8.59,8.39,12.92,12.56C134.52,202.44,134.37,202.75,134.22,203.06z"></path>
			<circle class="st1" cx="124.79" cy="126.22" r="49.58"></circle>
			<polygon class="st1" points="144.12,200.5 152,158.72 115.54,169.03    "></polygon>
			<g>
				<circle class="st0" cx="107.68" cy="126.22" r="5.19"></circle>
				<circle class="st0" cx="124.79" cy="126.22" r="5.19"></circle>
				<circle class="st0" cx="141.89" cy="126.22" r="5.19"></circle>
			</g>
		</g>
		<path class="st2" d="M141.03,278.08c30.16-58.73-39.68-130.16-39.68-130.16s77.78,31.75,77.78,130.16H141.03z"></path>
		<path class="st2" d="M128.32,161.7c3.24-4.8,7.35-10.06,12.46-15.16c15.87-15.87,33.33-19.05,33.33-19.05    c-19.18,11.19-29.1,33.23-34.23,52.37C136.33,173.16,132.41,167.12,128.32,161.7z"></path>
		<text transform="matrix(1 0 0 1 179.1293 218.8925)" class="st0 st3 st4">alabres</text>
		<text transform="matrix(1 0 0 1 183.2445 278.3046)" class="st0 st3 st5">AK</text>
		<text transform="matrix(0.583 0 0 0.583 272.1215 257.9492)" class="st0 st3 st5">2</text>
	</g>
	<text transform="matrix(1 0 0 1 89.2299 320.6367)" class="st0 st6 st7">Traduction &amp; Interprétation</text>
	<g>
		<text transform="matrix(1 0 0 1 152.3343 344.1347)" class="st0 st6 st7">Kébé &amp; Fils</text>
	</g>
	<line class="st8" x1="50" y1="297.74" x2="347.69" y2="297.74"></line>
</g>
</svg>
